HIERARCHY
ROOT Hips
{
	OFFSET -3.958830 18.904000 13.208200
	CHANNELS 6 Xposition Yposition Zposition Zrotation Yrotation Xrotation 
	JOINT LHipJoint
	{
		OFFSET 0.000000 0.000000 0.000000
		CHANNELS 3 Zrotation Yrotation Xrotation
		JOINT LeftUpLeg
		{
			OFFSET 1.800000 -1.400000 0.085000
			CHANNELS 3 Zrotation Yrotation Xrotation
			JOINT LeftLeg
			{
				OFFSET 2.215000 -6.000000 0.000000
				CHANNELS 3 Zrotation Yrotation Xrotation
				JOINT LeftFoot
				{
					OFFSET 2.500000 -6.900000 0.000000
					CHANNELS 3 Zrotation Yrotation Xrotation
					JOINT LeftToeBase
					{
						OFFSET 0.200000 -0.500000 1.950000
						CHANNELS 3 Zrotation Yrotation Xrotation
						End Site
						{
							OFFSET 0.000000 0.000000 0.000000
						}
					}
				}
			}
		}
	}
	JOINT RHipJoint
	{
		OFFSET 0.000000 0.000000 0.000000
		CHANNELS 3 Zrotation Yrotation Xrotation
		JOINT RightUpLeg
		{
			OFFSET -1.800000 -1.400000 0.085000
			CHANNELS 3 Zrotation Yrotation Xrotation
			JOINT RightLeg
			{
				OFFSET -2.215000 -6.000000 0.000000
				CHANNELS 3 Zrotation Yrotation Xrotation
				JOINT RightFoot
				{
					OFFSET -2.500000 -6.900000 0.000000
					CHANNELS 3 Zrotation Yrotation Xrotation
					JOINT RightToeBase
					{
						OFFSET -0.200000 -0.500000 1.950000
						CHANNELS 3 Zrotation Yrotation Xrotation
						End Site
						{
							OFFSET 0.000000 0.000000 0.000000
						}
					}
				}
			}
		}
	}
	JOINT LowerBack
	{
		OFFSET 0.000000 0.000000 0.000000
		CHANNELS 3 Zrotation Yrotation Xrotation
		JOINT Spine
		{
			OFFSET -0.087000 1.940000 -0.288900
			CHANNELS 3 Zrotation Yrotation Xrotation
			JOINT Spine1
			{
				OFFSET 0.000000 1.950000 0.060000
				CHANNELS 3 Zrotation Yrotation Xrotation
				JOINT Neck
				{
					OFFSET 0.000000 0.000000 0.000000
					CHANNELS 3 Zrotation Yrotation Xrotation
					JOINT Neck1
					{
						OFFSET 0.000000 1.600000 0.340000
						CHANNELS 3 Zrotation Yrotation Xrotation
						JOINT Head
						{
							OFFSET 0.000000 1.667000 -0.240000
							CHANNELS 3 Zrotation Yrotation Xrotation
							End Site
							{
								OFFSET 0.000000 0.000000 0.000000
							}
						}
					}
				}
				JOINT LeftShoulder
				{
					OFFSET 0.000000 0.000000 0.000000
					CHANNELS 3 Zrotation Yrotation Xrotation
					JOINT LeftArm
					{
						OFFSET 2.700000 1.550000 -0.730000
						CHANNELS 3 Zrotation Yrotation Xrotation
						JOINT LeftForeArm
						{
							OFFSET 5.450000 0.000000 0.000000
							CHANNELS 3 Zrotation Yrotation Xrotation
							JOINT LeftHand
							{
								OFFSET 3.450000 0.000000 0.000000
								CHANNELS 3 Zrotation Yrotation Xrotation
								JOINT LeftHandIndex1
								{
									OFFSET 0.750000 0.000000 0.000000
									CHANNELS 3 Zrotation Yrotation Xrotation
									End Site
									{
										OFFSET 0.000000 0.000000 0.000000
									}
								}
							}
						}
					}
				}
				JOINT RightShoulder
				{
					OFFSET 0.000000 0.000000 0.000000
					CHANNELS 3 Zrotation Yrotation Xrotation
					JOINT RightArm
					{
						OFFSET -2.700000 1.550000 -0.730000
						CHANNELS 3 Zrotation Yrotation Xrotation
						JOINT RightForeArm
						{
							OFFSET -5.450000 0.000000 0.000000
							CHANNELS 3 Zrotation Yrotation Xrotation
							JOINT RightHand
							{
								OFFSET -3.450000 0.000000 0.000000
								CHANNELS 3 Zrotation Yrotation Xrotation
								JOINT RightHandIndex1
								{
									OFFSET -0.750000 0.000000 0.000000
									CHANNELS 3 Zrotation Yrotation Xrotation
									End Site
									{
										OFFSET 0.000000 0.000000 0.000000
									}
								}
							}
						}
					}
				}
			}
		}
	}
}
MOTION
Frames: 12
Frame Time: 0.016667
2.219760 17.636440 -2.446470 -4.268682 -18.555415 7.098185 -14.683864 12.812365 3.966321 -10.350356 -2.853948 -14.943985 -2.583278 2.648155 2.527536 -0.287137 2.275564 3.905635 -0.019450 -0.111970 -0.111340 18.649426 -11.186100 3.268667 1.829868 -1.466955 0.726975 4.952823 -5.206548 11.070918 -0.434823 -4.154201 3.045458 -0.099560 0.253390 0.129090 -4.567309 -0.691685 -8.281644 24.390958 3.543374 10.910393 -14.745876 8.505955 -6.567026 4.640241 -4.911583 -14.907078 -11.190898 3.069303 43.584816 -4.234490 0.853770 0.592020 -13.389157 -5.435746 3.056035 3.185170 13.440232 0.316457 6.998833 -15.778148 0.139999 -3.853038 2.907387 0.213130 0.115920 -0.031860 0.117180 2.952653 15.494044 11.310874 -0.457204 7.311311 0.170468 -1.733198 -9.373082 0.079314 2.997052 -0.934555 -0.092070 0.137750 0.117250 0.006880 
2.247460 17.666060 -2.462790 -4.770704 -19.637056 7.079682 -14.715753 12.974326 3.951015 -9.257104 -2.769048 -14.863372 -2.056867 2.569993 2.256429 -0.326435 2.365456 3.901499 -0.048060 -0.128990 -0.166350 18.572341 -11.190646 3.312490 1.729790 -1.388430 0.679293 5.195125 -5.204031 10.965840 -0.382377 -4.200074 3.040231 -0.063410 0.354640 0.133700 -4.364314 -0.852575 -8.319696 25.144691 2.812298 12.906601 -15.707038 8.420306 -8.999121 4.956680 -6.035758 -14.905414 -11.744491 5.108772 42.052885 -3.914700 2.319420 1.322480 -9.111671 -1.666376 1.928037 -2.106275 10.701075 -0.105727 8.890115 -16.341486 0.025892 -4.020491 2.829083 0.159370 0.196370 -0.106200 0.126930 -2.093923 14.767244 11.358863 5.287167 11.610961 1.296932 -2.924905 -10.901697 0.277187 2.993319 -0.981250 -0.135000 0.174150 0.159900 0.017830 
2.300150 17.727910 -2.497080 -4.951633 -20.595449 6.831717 -14.751846 13.170964 3.907341 -7.938452 -2.650132 -14.669187 -1.333665 2.486277 2.043619 -0.354117 2.398191 3.883781 -0.028530 -0.104970 -0.143630 18.503472 -11.141068 3.328615 1.309958 -1.333404 0.660436 5.596219 -5.205423 10.627330 -0.379685 -4.169021 3.030079 -0.032610 0.348850 0.127010 -4.181392 -1.203185 -8.331083 25.331550 2.216040 14.503281 -15.714531 8.225513 -10.564923 5.262427 -6.886785 -14.856958 -13.010462 6.560451 42.555282 -3.815560 3.133580 0.623940 -8.193164 -0.048158 1.365108 -4.907600 8.995049 -0.212754 12.268055 -14.175689 -0.203032 -4.092001 2.763324 0.171580 0.189120 -0.101140 0.116470 -3.590421 14.791787 11.133239 6.383888 13.729529 1.637771 -3.380065 -11.822107 0.344856 3.013104 -0.980059 -0.148480 0.191190 0.162900 0.006340 
2.366550 17.781120 -2.536720 -4.876041 -21.228305 6.608052 -14.789156 13.353029 3.864386 -6.315234 -2.438628 -14.410231 -1.727624 2.560949 1.412323 -0.352758 2.457894 3.847079 -0.012830 -0.084580 -0.121800 18.446652 -11.063819 3.315933 1.096557 -1.286822 0.376715 5.520315 -5.114216 10.407856 -0.383505 -4.061944 3.060485 -0.027070 0.310780 0.111220 -4.027310 -1.610458 -8.336560 25.088411 1.946670 15.664192 -15.230715 8.144345 -11.466217 5.416079 -7.300373 -15.076050 -14.352540 7.243457 43.935869 -3.754390 3.291660 -0.324910 -7.597772 0.435191 1.299404 -5.919639 8.355688 -0.260183 12.191615 -13.082478 -0.200500 -4.076408 2.702629 0.211670 0.152150 -0.068470 0.104740 -4.209292 14.721886 11.137885 6.381935 13.522467 1.544293 -3.645446 -10.939799 0.358823 3.003901 -0.937824 -0.149080 0.205200 0.160020 -0.006850 
2.425710 17.810580 -2.572320 -4.328252 -21.082048 6.735367 -14.788760 13.388833 3.815258 -4.681987 -2.278402 -14.576857 -3.198516 2.791470 1.167316 -0.341401 2.557523 3.810797 -0.014570 -0.100040 -0.099090 18.439448 -11.059764 3.296639 0.762741 -1.197750 -0.305289 5.506426 -5.007113 9.899402 -0.371832 -3.952569 3.103282 -0.044500 0.295220 0.110590 -4.013655 -1.664504 -8.337868 23.938157 2.332224 15.498525 -13.919001 8.061144 -11.524603 5.083716 -6.840583 -14.662041 -14.231161 6.500568 44.366655 -3.947970 2.835000 -0.825650 -8.159320 -0.008310 1.276771 -3.799827 7.702042 -0.103744 9.066549 -12.625447 -0.086749 -4.052505 2.664869 0.238030 0.137750 -0.051190 0.094020 -2.865577 13.717096 10.958897 4.919305 11.274147 0.834717 -5.430158 -8.285128 0.345037 2.949813 -0.946010 -0.150380 0.212820 0.159240 -0.018220 
2.489040 17.817170 -2.620200 -3.301560 -20.226123 6.352543 -14.743390 13.233105 3.705887 -3.442669 -2.080213 -14.302890 -4.709538 3.082490 1.335026 -0.341997 2.699658 3.757443 -0.038020 -0.147200 -0.085870 18.510242 -11.153022 3.235559 -0.138542 -1.080270 -0.899803 5.859138 -5.080563 9.655232 -0.358561 -3.969520 3.088733 -0.068320 0.287770 0.127510 -4.214364 -1.284881 -8.207115 22.727303 2.405020 13.989115 -13.128795 7.507314 -7.302154 5.081551 -6.269163 -14.469256 -13.718850 5.245021 42.454521 -5.004730 2.618810 -1.074680 -11.085715 -2.788774 2.162260 -1.061435 7.648744 -0.016202 11.373399 -8.692484 -0.292663 -4.093878 2.665379 0.245400 0.147720 -0.056220 0.069150 0.200275 13.992554 10.990977 0.860705 7.769993 0.134674 -4.559418 -7.097642 0.189709 2.913048 -0.937957 -0.157150 0.193840 0.175940 -0.037840 
2.556050 17.830660 -2.655830 -2.204561 -19.362088 6.397763 -14.675788 13.026814 3.568174 -2.453743 -2.012638 -14.418671 -5.811831 3.325577 2.087913 -0.330858 2.737678 3.729545 -0.003920 -0.141490 -0.013410 18.616815 -11.246526 3.158682 -1.479243 -0.865348 -1.878943 6.760366 -5.217221 9.200654 -0.391191 -3.957064 3.081868 -0.093880 0.207940 0.155020 -4.514539 -0.840897 -8.023669 21.643152 2.969758 11.290859 -12.564862 7.230036 -2.659955 4.708834 -4.623264 -13.886009 -11.575633 2.776711 41.721406 -6.739420 2.178380 -2.286410 -16.119915 -7.285833 3.412320 6.905288 9.684869 0.501960 9.660624 -4.962615 -0.284527 -4.002873 2.732246 0.291890 0.109800 0.001360 0.062820 5.883425 14.726036 10.563383 -7.104626 2.446670 -0.395196 -0.913085 -4.574788 -0.168830 2.826534 -0.932807 -0.126910 0.146670 0.135390 -0.066480 
2.618140 17.850000 -2.681700 -1.607680 -18.761717 6.553253 -14.643526 12.993655 3.436739 -1.149547 -1.907862 -14.553576 -6.025129 3.529932 3.219626 -0.322231 2.786273 3.710897 -0.002140 -0.139110 -0.003980 18.654986 -11.295910 3.123836 -2.437834 -0.648743 -2.760786 7.676473 -5.350452 9.112425 -0.385017 -3.959259 3.091732 -0.103240 0.200270 0.160250 -4.634116 -0.683207 -7.893705 21.032734 3.157072 9.924138 -12.069015 6.945823 -1.016529 4.342862 -3.982860 -13.368886 -10.625832 1.815676 41.121718 -7.430700 2.034500 -2.536730 -17.549078 -8.669348 3.768697 9.794099 9.745491 0.601119 10.000289 -2.479589 -0.291238 -4.008329 2.734779 0.289650 0.113740 0.009660 0.066140 7.970094 14.640842 10.179454 -9.862082 0.328827 -0.602109 -1.390798 -3.614481 -0.180092 2.787097 -0.962338 -0.117120 0.142270 0.124690 -0.066750 
2.674190 17.868820 -2.707140 -1.521952 -18.625202 6.547401 -14.605316 13.069407 3.281991 0.472133 -1.729857 -14.458603 -5.286370 3.655813 4.766094 -0.317367 2.810810 3.699022 0.017340 -0.116040 0.007940 18.679494 -11.375172 3.109240 -2.655063 -0.531788 -3.472177 7.663406 -5.368633 9.655189 -0.380052 -3.928883 3.097564 -0.095280 0.189480 0.162210 -4.719046 -0.608133 -7.760695 21.075291 3.018824 9.306075 -11.980335 6.643100 -0.265159 3.984151 -3.874040 -13.028659 -10.491794 1.635566 40.780171 -7.366530 1.982050 -2.692510 -17.630596 -9.205833 3.693083 12.384323 10.113375 0.865189 7.314608 -2.813512 -0.329659 -3.943852 2.779584 0.287240 0.106430 0.019900 0.078700 8.718124 14.532206 10.053115 -10.247054 -0.039213 -0.672139 -2.245865 -3.533100 -0.145879 2.789126 -0.995588 -0.106650 0.134770 0.103000 -0.062210 
2.732940 17.880550 -2.739180 -1.083761 -18.509041 6.138058 -14.599589 13.201887 3.131062 1.539152 -1.559961 -14.159620 -4.022704 3.759880 6.859708 -0.330386 2.849392 3.674704 0.020780 -0.099100 0.008270 18.665877 -11.454972 3.093475 -3.043650 -0.497719 -3.850120 7.042680 -5.248869 9.890567 -0.355476 -3.893518 3.098986 -0.076370 0.190170 0.159250 -4.691410 -0.621804 -7.645550 20.339668 2.865785 9.207190 -11.465128 6.280622 0.466495 3.832284 -4.076682 -12.696710 -10.810437 1.676333 40.144227 -7.706660 2.085160 -2.794310 -17.441911 -9.179275 3.497607 13.188698 8.774607 0.800262 6.238357 -1.244500 -0.411033 -3.971824 2.768408 0.265990 0.115350 0.012420 0.074910 8.892281 14.349343 9.883753 -10.642907 -0.031467 -0.728143 -2.891959 -4.027949 -0.163074 2.797935 -1.024965 -0.106060 0.134220 0.102010 -0.059090 
2.770260 17.880450 -2.762120 -0.147069 -18.152017 5.753391 -14.626372 13.327816 2.995991 2.237711 -1.417247 -13.777869 -2.804736 3.828122 8.765530 -0.333433 2.898385 3.656590 0.035370 -0.084740 0.018910 18.628789 -11.486582 3.074257 -3.742256 -0.486557 -4.121177 6.753641 -5.143888 9.612443 -0.346430 -3.843712 3.120037 -0.067240 0.188260 0.146570 -4.590125 -0.726980 -7.551336 18.491362 2.757192 8.723708 -10.631815 5.793339 1.466865 3.576350 -4.246033 -12.708331 -11.207722 1.813481 39.770659 -7.042320 1.853330 -3.297710 -16.600055 -9.363392 3.676859 13.294577 7.821422 0.722681 4.818411 0.194242 -0.519900 -3.972032 2.740450 0.276580 0.102930 0.016190 0.082320 8.779979 14.362754 9.886888 -10.625223 -0.302039 -0.690468 -2.458511 -4.364498 -0.183690 2.802837 -1.021768 -0.111710 0.148640 0.089680 -0.059390 
2.808370 17.880910 -2.781200 0.259601 -17.828335 5.487963 -14.649553 13.514056 2.903825 3.343997 -1.245018 -13.494160 -2.026820 3.951636 10.355684 -0.330275 3.014276 3.617422 0.031210 -0.097990 0.005600 18.580962 -11.485976 3.065447 -3.940934 -0.440764 -4.388470 6.536054 -5.123628 9.980475 -0.334051 -3.808001 3.135690 -0.071460 0.200090 0.141830 -4.467894 -0.983354 -7.523128 17.454736 2.386994 8.707196 -10.055299 5.268432 1.326299 3.442210 -4.615173 -12.955421 -12.150788 2.360242 39.989809 -6.468640 1.816440 -2.938290 -16.121628 -9.396197 3.711554 13.306506 7.096040 0.586951 5.217186 0.708661 -0.533426 -3.985227 2.719850 0.292040 0.099170 0.011490 0.093020 8.769793 14.536126 10.146920 -10.374231 -1.126371 -0.696603 -3.064241 -3.911734 -0.125109 2.793951 -1.024073 -0.124980 0.156150 0.091870 -0.058770 
